<svg xmlns="http://www.w3.org/2000/svg" xmlns:xlink="http://www.w3.org/1999/xlink" width="234" viewBox="0 0 234 37.5" height="37.5" version="1.0"><defs><g id="b"><path d="M 11.046875 -19.828125 C 12.835938 -19.828125 14.394531 -19.53125 15.71875 -18.9375 C 17.039062 -18.34375 18.0625 -17.492188 18.78125 -16.390625 C 19.5 -15.285156 19.859375 -13.988281 19.859375 -12.5 C 19.859375 -11 19.5 -9.703125 18.78125 -8.609375 C 18.0625 -7.515625 17.039062 -6.671875 15.71875 -6.078125 C 14.394531 -5.484375 12.835938 -5.1875 11.046875 -5.1875 L 7.59375 -5.1875 L 7.59375 0 L 1.984375 0 L 1.984375 -19.828125 Z M 10.703125 -9.609375 C 11.859375 -9.609375 12.726562 -9.859375 13.3125 -10.359375 C 13.894531 -10.859375 14.1875 -11.570312 14.1875 -12.5 C 14.1875 -13.414062 13.894531 -14.128906 13.3125 -14.640625 C 12.726562 -15.148438 11.859375 -15.40625 10.703125 -15.40625 L 7.59375 -15.40625 L 7.59375 -9.609375 Z M 10.703125 -9.609375"/></g><g id="c"><path d="M 6.859375 -13.515625 C 7.398438 -14.210938 8.109375 -14.734375 8.984375 -15.078125 C 9.867188 -15.429688 10.878906 -15.609375 12.015625 -15.609375 L 12.015625 -10.765625 C 11.523438 -10.816406 11.117188 -10.84375 10.796875 -10.84375 C 9.640625 -10.84375 8.734375 -10.53125 8.078125 -9.90625 C 7.429688 -9.289062 7.109375 -8.335938 7.109375 -7.046875 L 7.109375 0 L 1.734375 0 L 1.734375 -15.359375 L 6.859375 -15.359375 Z M 6.859375 -13.515625"/></g><g id="d"><path d="M 9.4375 0.25 C 7.789062 0.25 6.304688 -0.0859375 4.984375 -0.765625 C 3.660156 -1.441406 2.625 -2.382812 1.875 -3.59375 C 1.132812 -4.800781 0.765625 -6.171875 0.765625 -7.703125 C 0.765625 -9.210938 1.132812 -10.570312 1.875 -11.78125 C 2.625 -12.988281 3.65625 -13.925781 4.96875 -14.59375 C 6.28125 -15.269531 7.769531 -15.609375 9.4375 -15.609375 C 11.09375 -15.609375 12.582031 -15.269531 13.90625 -14.59375 C 15.226562 -13.925781 16.257812 -12.992188 17 -11.796875 C 17.738281 -10.597656 18.109375 -9.234375 18.109375 -7.703125 C 18.109375 -6.171875 17.738281 -4.800781 17 -3.59375 C 16.257812 -2.382812 15.226562 -1.441406 13.90625 -0.765625 C 12.582031 -0.0859375 11.09375 0.25 9.4375 0.25 Z M 9.4375 -4.015625 C 10.375 -4.015625 11.144531 -4.34375 11.75 -5 C 12.351562 -5.65625 12.65625 -6.554688 12.65625 -7.703125 C 12.65625 -8.835938 12.351562 -9.722656 11.75 -10.359375 C 11.144531 -11.003906 10.375 -11.328125 9.4375 -11.328125 C 8.488281 -11.328125 7.710938 -11.003906 7.109375 -10.359375 C 6.503906 -9.722656 6.203125 -8.835938 6.203125 -7.703125 C 6.203125 -6.554688 6.503906 -5.65625 7.109375 -5 C 7.710938 -4.34375 8.488281 -4.015625 9.4375 -4.015625 Z M 9.4375 -4.015625"/></g><g id="e"><path d="M 18.046875 -21.015625 L 18.046875 0 L 12.921875 0 L 12.921875 -1.53125 C 11.921875 -0.34375 10.414062 0.25 8.40625 0.25 C 7.007812 0.25 5.734375 -0.0703125 4.578125 -0.71875 C 3.429688 -1.375 2.519531 -2.304688 1.84375 -3.515625 C 1.175781 -4.722656 0.84375 -6.117188 0.84375 -7.703125 C 0.84375 -9.285156 1.175781 -10.675781 1.84375 -11.875 C 2.519531 -13.082031 3.429688 -14.003906 4.578125 -14.640625 C 5.734375 -15.285156 7.007812 -15.609375 8.40625 -15.609375 C 10.238281 -15.609375 11.65625 -15.078125 12.65625 -14.015625 L 12.65625 -21.015625 Z M 9.546875 -4.015625 C 10.472656 -4.015625 11.238281 -4.34375 11.84375 -5 C 12.445312 -5.65625 12.75 -6.554688 12.75 -7.703125 C 12.75 -8.835938 12.453125 -9.722656 11.859375 -10.359375 C 11.265625 -11.003906 10.492188 -11.328125 9.546875 -11.328125 C 8.597656 -11.328125 7.820312 -11.003906 7.21875 -10.359375 C 6.613281 -9.722656 6.3125 -8.835938 6.3125 -7.703125 C 6.3125 -6.554688 6.613281 -5.65625 7.21875 -5 C 7.820312 -4.34375 8.597656 -4.015625 9.546875 -4.015625 Z M 9.546875 -4.015625"/></g><g id="f"><path d="M 17.421875 -7.65625 C 17.421875 -7.613281 17.394531 -7.164062 17.34375 -6.3125 L 6.171875 -6.3125 C 6.398438 -5.519531 6.835938 -4.910156 7.484375 -4.484375 C 8.140625 -4.066406 8.957031 -3.859375 9.9375 -3.859375 C 10.675781 -3.859375 11.3125 -3.957031 11.84375 -4.15625 C 12.382812 -4.363281 12.929688 -4.707031 13.484375 -5.1875 L 16.3125 -2.234375 C 14.820312 -0.578125 12.640625 0.25 9.765625 0.25 C 7.972656 0.25 6.394531 -0.0859375 5.03125 -0.765625 C 3.675781 -1.441406 2.625 -2.382812 1.875 -3.59375 C 1.132812 -4.800781 0.765625 -6.171875 0.765625 -7.703125 C 0.765625 -9.210938 1.128906 -10.566406 1.859375 -11.765625 C 2.585938 -12.960938 3.59375 -13.898438 4.875 -14.578125 C 6.15625 -15.265625 7.597656 -15.609375 9.203125 -15.609375 C 10.734375 -15.609375 12.117188 -15.289062 13.359375 -14.65625 C 14.609375 -14.019531 15.597656 -13.101562 16.328125 -11.90625 C 17.054688 -10.707031 17.421875 -9.289062 17.421875 -7.65625 Z M 9.234375 -11.78125 C 8.398438 -11.78125 7.703125 -11.546875 7.140625 -11.078125 C 6.585938 -10.609375 6.238281 -9.96875 6.09375 -9.15625 L 12.375 -9.15625 C 12.226562 -9.96875 11.875 -10.609375 11.3125 -11.078125 C 10.757812 -11.546875 10.066406 -11.78125 9.234375 -11.78125 Z M 9.234375 -11.78125"/></g><g id="g"><path d="M 21.734375 -15.609375 C 23.617188 -15.609375 25.125 -15.039062 26.25 -13.90625 C 27.375 -12.769531 27.9375 -11.0625 27.9375 -8.78125 L 27.9375 0 L 22.546875 0 L 22.546875 -7.90625 C 22.546875 -8.976562 22.34375 -9.769531 21.9375 -10.28125 C 21.53125 -10.789062 20.957031 -11.046875 20.21875 -11.046875 C 19.414062 -11.046875 18.765625 -10.757812 18.265625 -10.1875 C 17.773438 -9.625 17.53125 -8.769531 17.53125 -7.625 L 17.53125 0 L 12.15625 0 L 12.15625 -7.90625 C 12.15625 -10 11.378906 -11.046875 9.828125 -11.046875 C 8.992188 -11.046875 8.332031 -10.757812 7.84375 -10.1875 C 7.351562 -9.625 7.109375 -8.769531 7.109375 -7.625 L 7.109375 0 L 1.734375 0 L 1.734375 -15.359375 L 6.859375 -15.359375 L 6.859375 -13.734375 C 7.421875 -14.359375 8.09375 -14.828125 8.875 -15.140625 C 9.664062 -15.453125 10.519531 -15.609375 11.4375 -15.609375 C 12.519531 -15.609375 13.484375 -15.410156 14.328125 -15.015625 C 15.179688 -14.617188 15.875 -14.015625 16.40625 -13.203125 C 17.007812 -13.972656 17.769531 -14.566406 18.6875 -14.984375 C 19.613281 -15.398438 20.628906 -15.609375 21.734375 -15.609375 Z M 21.734375 -15.609375"/></g><g id="h"><path d="M 17.90625 -15.359375 L 11.28125 0.625 C 10.5 2.507812 9.550781 3.832031 8.4375 4.59375 C 7.320312 5.363281 5.960938 5.75 4.359375 5.75 C 3.546875 5.75 2.726562 5.617188 1.90625 5.359375 C 1.09375 5.109375 0.429688 4.773438 -0.078125 4.359375 L 1.78125 0.59375 C 2.082031 0.875 2.445312 1.09375 2.875 1.25 C 3.300781 1.414062 3.734375 1.5 4.171875 1.5 C 4.671875 1.5 5.085938 1.394531 5.421875 1.1875 C 5.753906 0.976562 6.035156 0.648438 6.265625 0.203125 L -0.3125 -15.359375 L 5.21875 -15.359375 L 8.984375 -5.984375 L 12.78125 -15.359375 Z M 17.90625 -15.359375"/></g><clipPath id="a"><path d="M 1.539062 0.796875 L 59.269531 0.796875 L 59.269531 36.324219 L 1.539062 36.324219 Z M 1.539062 0.796875"/></clipPath></defs><g clip-path="url(#a)"><path fill="#FF1616" d="M 30.574219 32.488281 L 14.644531 26.214844 L 17.46875 17.21875 L 30.851562 21.691406 L 44.234375 17.21875 L 47.0625 26.214844 L 30.851562 32.582031 Z M 16.488281 25.324219 L 30.851562 30.96875 L 45.195312 25.324219 L 43.253906 19.140625 L 30.851562 23.285156 L 18.453125 19.140625 Z M 11.09375 18.953125 C 10.953125 18.953125 10.8125 19 10.699219 19.117188 C 10.605469 19.210938 10.535156 19.351562 10.535156 19.492188 C 10.535156 19.65625 10.605469 19.796875 10.699219 19.890625 C 10.8125 20.007812 10.953125 20.054688 11.09375 20.054688 C 11.257812 20.054688 11.398438 20.007812 11.492188 19.890625 C 11.585938 19.796875 11.65625 19.65625 11.65625 19.492188 C 11.65625 19.351562 11.585938 19.210938 11.492188 19.117188 C 11.398438 19 11.257812 18.953125 11.09375 18.953125 Z M 10.605469 34.808594 L 11.609375 34.808594 L 11.164062 27.851562 Z M 11.09375 36.332031 L 8.96875 36.332031 L 10.183594 21.367188 C 9.972656 21.25 9.789062 21.132812 9.625 20.96875 C 9.25 20.59375 9.039062 20.078125 9.039062 19.492188 C 9.039062 18.929688 9.25 18.414062 9.625 18.039062 C 9.855469 17.828125 10.113281 17.664062 10.394531 17.546875 L 10.347656 13.707031 L 1.542969 10.6875 C 11.164062 7.40625 20.789062 4.105469 30.410156 0.800781 C 40.03125 4.105469 49.652344 7.40625 59.277344 10.6875 L 30.410156 20.570312 L 30.175781 20.5 L 11.867188 14.222656 L 11.914062 17.59375 C 12.144531 17.6875 12.378906 17.851562 12.566406 18.039062 C 12.941406 18.414062 13.171875 18.929688 13.171875 19.492188 C 13.171875 20.078125 12.941406 20.59375 12.566406 20.96875 C 12.472656 21.0625 12.378906 21.132812 12.261719 21.203125 L 13.21875 36.332031 Z M 6.214844 10.6875 L 11.703125 12.582031 L 27.421875 7.289062 C 27.816406 7.148438 28.261719 7.359375 28.378906 7.757812 C 28.519531 8.15625 28.308594 8.578125 27.910156 8.71875 L 14.0625 13.378906 L 30.410156 18.976562 L 54.605469 10.6875 L 30.410156 2.394531 L 6.214844 10.6875"/></g><g fill="#FBFBFB"><use x="59.245" y="27.571" xmlns:xlink="http://www.w3.org/1999/xlink" xlink:href="#b" xlink:type="simple" xlink:actuate="onLoad" xlink:show="embed"/></g><g fill="#FBFBFB"><use x="80.118" y="27.571" xmlns:xlink="http://www.w3.org/1999/xlink" xlink:href="#c" xlink:type="simple" xlink:actuate="onLoad" xlink:show="embed"/></g><g fill="#FBFBFB"><use x="92.664" y="27.571" xmlns:xlink="http://www.w3.org/1999/xlink" xlink:href="#d" xlink:type="simple" xlink:actuate="onLoad" xlink:show="embed"/></g><g fill="#FBFBFB"><use x="111.526" y="27.571" xmlns:xlink="http://www.w3.org/1999/xlink" xlink:href="#e" xlink:type="simple" xlink:actuate="onLoad" xlink:show="embed"/></g><g fill="#FBFBFB"><use x="131.295" y="27.571" xmlns:xlink="http://www.w3.org/1999/xlink" xlink:href="#f" xlink:type="simple" xlink:actuate="onLoad" xlink:show="embed"/></g><g fill="#FBFBFB"><use x="149.477" y="27.571" xmlns:xlink="http://www.w3.org/1999/xlink" xlink:href="#g" xlink:type="simple" xlink:actuate="onLoad" xlink:show="embed"/></g><g fill="#FBFBFB"><use x="179.073" y="27.571" xmlns:xlink="http://www.w3.org/1999/xlink" xlink:href="#h" xlink:type="simple" xlink:actuate="onLoad" xlink:show="embed"/></g></svg>